<svg xmlns="http://www.w3.org/2000/svg" width="48" height="44" fill="none" viewBox="0 0 48 44">
    <path fill="#333" fill-rule="evenodd" d="M29.934 2.808c0-1.085.88-1.964 1.964-1.964 1.085 0 1.965.88 1.965 1.964v37.415c0 1.085-.88 1.965-1.965 1.965s-1.964-.88-1.964-1.965V2.808zM.464 10.683c0-1.085.88-1.964 1.965-1.964s1.965.88 1.965 1.964v21.665c0 1.085-.88 1.965-1.965 1.965s-1.964-.88-1.964-1.965V10.683zm9.824 7.88c-1.085 0-1.965.88-1.965 1.964v7.883c0 1.085.88 1.965 1.965 1.965s1.964-.88 1.964-1.965v-7.883c0-1.085-.88-1.965-1.964-1.965zm5.893-4.933c0-2.712 2.2-4.911 4.912-4.911 2.712 0 4.911 2.199 4.911 4.911V33.34c0 2.712-2.199 4.911-4.911 4.911-2.713 0-4.912-2.199-4.912-4.911V13.63zm26.522.995c-2.712 0-4.911 2.199-4.911 4.912V29.4c0 2.713 2.199 4.912 4.911 4.912 2.713 0 4.912-2.2 4.912-4.912v-9.864c0-2.713-2.199-4.912-4.912-4.912z" clip-rule="evenodd"/>
    <mask id="prefix__a" width="48" height="43" x="0" y="0" maskUnits="userSpaceOnUse">
        <path fill="#fff" fill-rule="evenodd" d="M29.934 2.808c0-1.085.88-1.964 1.964-1.964 1.085 0 1.965.88 1.965 1.964v37.415c0 1.085-.88 1.965-1.965 1.965s-1.964-.88-1.964-1.965V2.808zM.464 10.683c0-1.085.88-1.964 1.965-1.964s1.965.88 1.965 1.964v21.665c0 1.085-.88 1.965-1.965 1.965s-1.964-.88-1.964-1.965V10.683zm9.824 7.88c-1.085 0-1.965.88-1.965 1.964v7.883c0 1.085.88 1.965 1.965 1.965s1.964-.88 1.964-1.965v-7.883c0-1.085-.88-1.965-1.964-1.965zm5.893-4.933c0-2.712 2.2-4.911 4.912-4.911 2.712 0 4.911 2.199 4.911 4.911V33.34c0 2.712-2.199 4.911-4.911 4.911-2.713 0-4.912-2.199-4.912-4.911V13.63zm26.522.995c-2.712 0-4.911 2.199-4.911 4.912V29.4c0 2.713 2.199 4.912 4.911 4.912 2.713 0 4.912-2.2 4.912-4.912v-9.864c0-2.713-2.199-4.912-4.912-4.912z" clip-rule="evenodd"/>
    </mask>
</svg>
